<svg id="Layer_1" data-name="Layer 1" xmlns="http://www.w3.org/2000/svg" viewBox="0 0 164.96 111.25"><defs><style>.cls-1{fill:#fe0000;}</style></defs><title>d3-logo</title><path class="cls-1" d="M37,36.93A3.28,3.28,0,0,1,33.7,40.2H20.6V22.53H13V47.9H33.7a11,11,0,0,0,10.93-11V20.59A11,11,0,0,0,33.7,9.67H13v7.65H33.7A3.25,3.25,0,0,1,37,20.59V36.93Z"/><path class="cls-1" d="M98.34,74.3A10.88,10.88,0,0,0,87.42,63.38H77.59A11,11,0,0,0,66.66,74.3v1.91h7.65V74.3A3.29,3.29,0,0,1,77.59,71h9.83A3.23,3.23,0,0,1,90.7,74.3v1.09a3.23,3.23,0,0,1-3.28,3.28H80.86v7.65h6.56a3.22,3.22,0,0,1,3.28,3.27v1.1A3.22,3.22,0,0,1,87.42,94H77.59a3.28,3.28,0,0,1-3.28-3.27V88.77H66.66v1.92a11,11,0,0,0,10.93,10.92h9.83A10.88,10.88,0,0,0,98.34,90.69v-1.1a10.83,10.83,0,0,0-2.62-7.1,10.81,10.81,0,0,0,2.62-7.1V74.3Z"/><path class="cls-1" d="M57.55,53.71H161.12V3.84H57.55V53.71ZM1.92,0H165V57.55H111.28v53.7H53.73V57.55H0V0ZM53.71,3.84H3.84V53.71H53.71V3.84Zm53.73,53.71H57.57v49.86h49.87V57.55Z"/><path class="cls-1" d="M70.51,6.94c-.37,0-.74-.05-1.11-.05-2,0-2.67.8-2.67,2.59v.41H65.47v1.44h1.26v6.33h2.14V11.33h1.51V9.89H68.85V9.27c0-.65.19-.8,1-.8l.71,0V6.94Zm7.6,10.72a5.19,5.19,0,0,1-.27-2.11V12.19c0-2.17-1.83-2.53-3.39-2.53-2.25,0-3.48.89-3.6,2.62h2c.15-.88.56-1.19,1.54-1.19s1.4.34,1.4,1-.51.76-1.9.94c-1.54.19-3.39.43-3.39,2.47,0,1.46,1,2.35,2.77,2.35a3.55,3.55,0,0,0,2.52-1,2.13,2.13,0,0,0,.15.75Zm-2.34-3.78v.87a1.69,1.69,0,0,1-1.9,1.74c-.73,0-1.17-.39-1.17-1,0-.95.83-1,1.57-1.16a4,4,0,0,0,1.5-.41Zm9.9-1.73c-.06-1.81-1.59-2.49-3.37-2.49-2.17,0-3.41.86-3.41,2.38,0,1.86,1.81,2.07,3.2,2.38,1.11.26,1.74.38,1.74,1s-.54,1-1.41,1-1.58-.36-1.66-1.3h-2c0,2,1.7,2.76,3.64,2.76,2.22,0,3.56-1,3.56-2.64s-1.63-2.12-3-2.41c-1.23-.25-1.9-.35-1.9-1,0-.48.45-.77,1.21-.77s1.35.25,1.47,1.07ZM88.9,6.94H86.79V17.66H88.9v-4c0-1.14.26-2.26,1.67-2.26,1.15,0,1.37.69,1.37,1.64v4.58h2.14V12.57c0-1.81-.83-2.88-2.73-2.88a2.85,2.85,0,0,0-2.45,1.24v-4Zm8.59,0H95.35v1.8h2.14V6.94Zm0,3H95.35v7.77h2.14V9.89Zm5.09-.23a3.85,3.85,0,0,0-4,4.12,4,4,0,1,0,8,0,3.82,3.82,0,0,0-4-4.12Zm-.06,1.63c1.19,0,1.9.92,1.9,2.47s-.69,2.53-1.87,2.53-1.88-.92-1.88-2.51.71-2.49,1.85-2.49Zm12.34,6.37v-5.2a2.51,2.51,0,0,0-2.69-2.78A3.1,3.1,0,0,0,109.59,11V9.89h-2v7.77h2.12V13.49c0-1.13.41-2.05,1.69-2.05s1.32.72,1.32,1.69v4.53Zm-40,10H73a3.37,3.37,0,0,1-.39,1.26L71.2,27.22a3.06,3.06,0,0,0,1.87-2.72A2.59,2.59,0,0,0,70.29,22a2.63,2.63,0,0,0-2.9,2.51,3.48,3.48,0,0,0,1,2.23A3.6,3.6,0,0,0,66,29.88,3.22,3.22,0,0,0,69.49,33a4.12,4.12,0,0,0,3-1.28l.88,1.06H76L73.8,30.27a5.15,5.15,0,0,0,1-2.63ZM70.15,26a2.77,2.77,0,0,1-.86-1.55,1,1,0,0,1,1-.94,1,1,0,0,1,1,1c0,.59-.32,1-1.12,1.49Zm-.65,2.14,1.86,2.24a2.32,2.32,0,0,1-1.78.94,1.48,1.48,0,0,1-1.52-1.45c0-.69.45-1.22,1.44-1.73Zm18.44,4.73V22.09H85.82V26a2.75,2.75,0,0,0-2.37-1.17c-2.06,0-3.4,1.61-3.4,4.06S81.42,33,83.58,33a2.61,2.61,0,0,0,2.35-1.21v1Zm-2-3.9c0,1.52-.68,2.39-1.86,2.39s-1.84-.9-1.84-2.41.68-2.38,1.84-2.38,1.86.89,1.86,2.4Zm10.56,1.49h-2a1.56,1.56,0,0,1-1.58,1.13c-1.15,0-1.8-.72-1.83-2.07h5.58v-.21c0-2.72-1.49-4.44-3.84-4.44A3.9,3.9,0,0,0,88.84,29a3.79,3.79,0,0,0,4,4.06,3.57,3.57,0,0,0,3.65-2.63Zm-2-2.29H91a1.75,1.75,0,0,1,1.74-1.75,1.68,1.68,0,0,1,1.67,1.75Zm9.54-.81c-.06-1.81-1.6-2.49-3.38-2.49-2.17,0-3.4.86-3.4,2.38,0,1.85,1.81,2.06,3.19,2.38,1.12.26,1.75.38,1.75,1s-.54,1-1.42,1-1.58-.36-1.65-1.29H97c0,2,1.71,2.75,3.65,2.75,2.21,0,3.55-1,3.55-2.63s-1.62-2.13-3-2.41c-1.24-.26-1.9-.35-1.9-1,0-.48.45-.76,1.2-.76s1.36.25,1.48,1.07Zm3.3-5.22h-2.14V23.9h2.14V22.09Zm0,3h-2.14v7.77h2.14V25.05Zm8.73,0h-2v1a2.48,2.48,0,0,0-2.32-1.25c-2,0-3.41,1.56-3.41,3.93s1.3,3.82,3.32,3.82a2.75,2.75,0,0,0,2.38-1.2l0,.87c0,1.25-.28,2-1.72,2-.93,0-1.4-.3-1.56-1H108.5c.21,1.62,1.4,2.42,3.65,2.42,2.53,0,3.83-1.11,3.83-3.7v-7Zm-3.85,1.44c1.13,0,1.81.83,1.81,2.22S113.25,31,112.15,31s-1.81-.88-1.81-2.25.66-2.26,1.79-2.26Zm12.5,6.33v-5.2a2.51,2.51,0,0,0-2.7-2.78,3.08,3.08,0,0,0-2.58,1.29V25.05h-2v7.77h2.12V28.65c0-1.13.41-2,1.69-2s1.33.72,1.33,1.68v4.54ZM73.69,45H71.63A1.62,1.62,0,0,1,70,46.55c-1.15,0-1.81-.89-1.81-2.45s.69-2.53,1.85-2.53a1.48,1.48,0,0,1,1.54,1.34h2.1C73.46,41.11,72.08,40,70,40a3.84,3.84,0,0,0-4,4.17,3.75,3.75,0,0,0,4,4A3.47,3.47,0,0,0,73.69,45Zm8.12.59h-2a1.55,1.55,0,0,1-1.58,1.13c-1.14,0-1.79-.73-1.82-2.07h5.57v-.21c0-2.73-1.49-4.44-3.84-4.44a3.9,3.9,0,0,0-3.9,4.15,3.79,3.79,0,0,0,4,4.07,3.58,3.58,0,0,0,3.64-2.63Zm-2-2.29h-3.4a1.74,1.74,0,0,1,1.73-1.75,1.68,1.68,0,0,1,1.67,1.75ZM90.06,48v-5.2A2.52,2.52,0,0,0,87.36,40a3.09,3.09,0,0,0-2.58,1.3V40.2h-2V48h2.12V43.8c0-1.13.41-2,1.69-2s1.33.73,1.33,1.69V48Zm5.47-7.78H94V37.85H91.82V40.2H90.53v1.45h1.29v4c0,1.89.57,2.38,2.41,2.38.48,0,.71,0,1.3-.06V46.38a4.94,4.94,0,0,1-.65,0c-.92,0-.93-.35-.93-1.1V41.65h1.58V40.2Zm5.65-.13a2.9,2.9,0,0,0-.47,0,2.68,2.68,0,0,0-2.51,1.61V40.2h-2V48H98.3V44.42c0-1.41.58-2.47,2-2.47a4.2,4.2,0,0,1,.83.09v-2Zm7.43,5.5h-2A1.56,1.56,0,0,1,105,46.7c-1.15,0-1.79-.73-1.82-2.07h5.57v-.21c0-2.73-1.49-4.44-3.84-4.44a3.9,3.9,0,0,0-3.9,4.15,3.79,3.79,0,0,0,4,4.07,3.58,3.58,0,0,0,3.65-2.63Zm-2-2.29h-3.4a1.74,1.74,0,0,1,1.73-1.75,1.68,1.68,0,0,1,1.67,1.75Z"/></svg>