<svg id="Layer_1" data-name="Layer 1" xmlns="http://www.w3.org/2000/svg" viewBox="0 0 164.96 111.25"><defs><style>.cls-1{fill:#fe0000;}</style></defs><title>d3-logo-rus</title><path class="cls-1" d="M37,36.93A3.28,3.28,0,0,1,33.7,40.2H20.6V22.53H13V47.9H33.7a11,11,0,0,0,10.93-11V20.59A11,11,0,0,0,33.7,9.67H13v7.65H33.7A3.25,3.25,0,0,1,37,20.59V36.93Z"/><path class="cls-1" d="M98.34,74.3A10.88,10.88,0,0,0,87.42,63.38H77.59A11,11,0,0,0,66.66,74.3v1.91h7.65V74.3A3.29,3.29,0,0,1,77.59,71h9.83A3.23,3.23,0,0,1,90.7,74.3v1.09a3.23,3.23,0,0,1-3.28,3.28H80.86v7.65h6.56a3.22,3.22,0,0,1,3.28,3.27v1.1A3.22,3.22,0,0,1,87.42,94H77.59a3.28,3.28,0,0,1-3.28-3.27V88.77H66.66v1.92a11,11,0,0,0,10.93,10.92h9.83A10.88,10.88,0,0,0,98.34,90.69v-1.1a10.83,10.83,0,0,0-2.62-7.1,10.81,10.81,0,0,0,2.62-7.1V74.3Z"/><path class="cls-1" d="M57.55,53.71H161.12V3.84H57.55V53.71ZM1.92,0H165V57.55H111.28v53.7H53.73V57.55H0V0ZM53.71,3.84H3.84V53.71H53.71V3.84Zm53.73,53.71H57.57v49.86h49.87V57.55Z"/><path class="cls-1" d="M74.78,19.81V15.88h-1V9.75H71.67v6.13H68.8V9.75H66.67v7.77h6.1v2.29Zm7.88-4.7h-2A1.56,1.56,0,0,1,79,16.24c-1.15,0-1.8-.73-1.83-2.07h5.58V14c0-2.72-1.49-4.44-3.84-4.44A3.9,3.9,0,0,0,75,13.68a3.79,3.79,0,0,0,4,4.06,3.58,3.58,0,0,0,3.65-2.63Zm-2-2.29H77.2a1.75,1.75,0,0,1,1.74-1.75,1.68,1.68,0,0,1,1.67,1.75Zm10.25,4.7V9.75H88.73v2.81h-3V9.75H83.61v7.77h2.12V14.25h3v3.27Zm7.82-6.13V9.75H91.43v1.64H94v6.13h2.13V11.39Zm2.55-1.64h-2V20.28h2.12V16.55a2.8,2.8,0,0,0,2.4,1.16c2,0,3.37-1.59,3.37-4s-1.37-4.15-3.46-4.15a2.81,2.81,0,0,0-2.41,1.18v-1Zm1.88,1.5c1.14,0,1.85.91,1.85,2.43S104.27,16,103.12,16s-1.86-.89-1.86-2.39.69-2.4,1.85-2.4ZM75.91,32.68V24.9H72.8l-1.46,5.65h-.06L69.82,24.9h-3.1v7.78h2V26.77h0l1.52,5.91h2l1.52-5.91h0v5.91Zm9-3.89a4,4,0,1,0-8,0,4,4,0,1,0,8,0Zm-2.14,0c0,1.6-.69,2.53-1.87,2.53s-1.88-.91-1.88-2.51.71-2.49,1.85-2.49,1.9.92,1.9,2.47ZM94.08,35V31h-1V24.9H86.86v1.36a12.36,12.36,0,0,1-1,4.77H85V35h2V32.68h5.13V35ZM91,31H88a12.62,12.62,0,0,0,.87-4.35v-.2H91V31Zm11.27-6.13v7.78h2.12V24.9Zm-1,5.21a2.54,2.54,0,0,0-2.85-2.54H96.7V24.9H94.59v7.78H98.3c1.69,0,2.94-.85,2.94-2.57ZM96.7,29h1.07c.74,0,1.31.35,1.31,1.1s-.51,1.09-1.29,1.09H96.7V29Zm20.21,3.67V24.9h-2.43l-2.77,5.26V24.9h-2v7.78h2.43l2.77-5.26v5.26ZM75.11,50.12V46.19h-1V40.06H67.89v1.36a12.6,12.6,0,0,1-1,4.77H66v3.93h2V47.83H73.1v2.29ZM72,46.19H69a12.62,12.62,0,0,0,.87-4.35v-.2H72v4.55Zm11,1.64V40.06H80.58l-2.77,5.26V40.06h-2v7.77h2.42L81,42.58v5.25Zm8-2.3a1.72,1.72,0,0,0-1.66-1.85v0a1.82,1.82,0,0,0,1.4-1.72c0-1.45-1.21-2.1-3.25-2.1-1.78,0-3.45.68-3.51,2.49h2c.12-.81.62-1.07,1.48-1.07s1.22.41,1.22.87c0,.79-.57,1-1.48,1h-.55v1.34h.83c.93,0,1.34.44,1.34,1.09s-.43,1-1.39,1-1.58-.45-1.66-1.3h-2c0,2,1.7,2.76,3.65,2.76,2.16,0,3.63-.84,3.63-2.53Zm8.1,2.3a5.36,5.36,0,0,1-.27-2.11V42.36c0-2.16-1.82-2.53-3.39-2.53-2.24,0-3.48.89-3.6,2.62h2c.15-.88.55-1.19,1.53-1.19s1.4.34,1.4,1-.51.76-1.89.94c-1.54.19-3.39.44-3.39,2.47,0,1.46,1,2.35,2.77,2.35a3.53,3.53,0,0,0,2.51-1,2.38,2.38,0,0,0,.15.75Zm-2.33-3.78v.88a1.69,1.69,0,0,1-1.9,1.73c-.74,0-1.17-.39-1.17-1,0-.95.82-1,1.56-1.16a4,4,0,0,0,1.51-.41Zm8.59-6.94c-.14.69-.8,1-1.61,1s-1.48-.3-1.62-1h-.84c0,1.55,1,2.17,2.46,2.17s2.45-.62,2.45-2.17Zm2,10.72V40.06H105l-2.77,5.26V40.06h-2v7.77h2.43l2.77-5.25v5.25Zm8.51,0V40.06h-2.12v2.82h-3V40.06h-2.12v7.77h2.12V44.56h3v3.27Zm8.47,0a5.19,5.19,0,0,1-.27-2.11V42.36c0-2.16-1.82-2.53-3.39-2.53-2.25,0-3.48.89-3.6,2.62h2c.15-.88.56-1.19,1.54-1.19s1.4.34,1.4,1-.51.76-1.9.94-3.39.44-3.39,2.47c0,1.46,1.06,2.35,2.77,2.35a3.53,3.53,0,0,0,2.52-1,2.13,2.13,0,0,0,.15.75Zm-2.34-3.78v.88a1.69,1.69,0,0,1-1.89,1.73c-.74,0-1.18-.39-1.18-1,0-.95.83-1,1.57-1.16a4,4,0,0,0,1.5-.41Z"/></svg>