<svg id="Layer_1" data-name="Layer 1" xmlns="http://www.w3.org/2000/svg" viewBox="0 0 164.96 111.25"><defs><style>.cls-1{fill:#fe0000}</style></defs><title>d3-logo-rus</title><path class="cls-1" d="M37 36.93a3.28 3.28 0 0 1-3.3 3.27H20.6V22.53H13V47.9h20.7a11 11 0 0 0 10.93-11V20.59A11 11 0 0 0 33.7 9.67H13v7.65h20.7a3.25 3.25 0 0 1 3.3 3.27v16.34zM98.34 74.3a10.88 10.88 0 0 0-10.92-10.92h-9.83A11 11 0 0 0 66.66 74.3v1.91h7.65V74.3a3.29 3.29 0 0 1 3.28-3.3h9.83a3.23 3.23 0 0 1 3.28 3.3v1.09a3.23 3.23 0 0 1-3.28 3.28h-6.56v7.65h6.56a3.22 3.22 0 0 1 3.28 3.27v1.1A3.22 3.22 0 0 1 87.42 94h-9.83a3.28 3.28 0 0 1-3.28-3.27v-1.96h-7.65v1.92a11 11 0 0 0 10.93 10.92h9.83a10.88 10.88 0 0 0 10.92-10.92v-1.1a10.83 10.83 0 0 0-2.62-7.1 10.81 10.81 0 0 0 2.62-7.1V74.3z"/><path class="cls-1" d="M57.55 53.71h103.57V3.84H57.55v49.87zM1.92 0H165v57.55h-53.72v53.7H53.73v-53.7H0V0zm51.79 3.84H3.84v49.87h49.87V3.84zm53.73 53.71H57.57v49.86h49.87V57.55z"/><path class="cls-1" d="M74.78 19.81v-3.93h-1V9.75h-2.11v6.13H68.8V9.75h-2.13v7.77h6.1v2.29zm7.88-4.7h-2A1.56 1.56 0 0 1 79 16.24c-1.15 0-1.8-.73-1.83-2.07h5.58V14c0-2.72-1.49-4.44-3.84-4.44A3.9 3.9 0 0 0 75 13.68a3.79 3.79 0 0 0 4 4.06 3.58 3.58 0 0 0 3.65-2.63zm-2-2.29H77.2a1.75 1.75 0 0 1 1.74-1.75 1.68 1.68 0 0 1 1.67 1.75zm10.25 4.7V9.75h-2.18v2.81h-3V9.75h-2.12v7.77h2.12v-3.27h3v3.27zm7.82-6.13V9.75h-7.3v1.64H94v6.13h2.13v-6.13zm2.55-1.64h-2v10.53h2.12v-3.73a2.8 2.8 0 0 0 2.4 1.16c2 0 3.37-1.59 3.37-4s-1.37-4.15-3.46-4.15a2.81 2.81 0 0 0-2.41 1.18v-1zm1.88 1.5c1.14 0 1.85.91 1.85 2.43s-.74 2.32-1.89 2.32-1.86-.89-1.86-2.39.69-2.4 1.85-2.4zM75.91 32.68V24.9H72.8l-1.46 5.65h-.06l-1.46-5.65h-3.1v7.78h2v-5.91l1.52 5.91h2l1.52-5.91v5.91zm9-3.89a4 4 0 1 0-8 0 4 4 0 1 0 8 0zm-2.14 0c0 1.6-.69 2.53-1.87 2.53s-1.88-.91-1.88-2.51.71-2.49 1.85-2.49 1.9.92 1.9 2.47zM94.08 35v-4h-1v-6.1h-6.22v1.36a12.36 12.36 0 0 1-1 4.77H85V35h2v-2.32h5.13V35zM91 31h-3a12.62 12.62 0 0 0 .87-4.35v-.2H91V31zm11.27-6.13v7.78h2.12V24.9zm-1 5.21a2.54 2.54 0 0 0-2.85-2.54H96.7V24.9h-2.11v7.78h3.71c1.69 0 2.94-.85 2.94-2.57zM96.7 29h1.07c.74 0 1.31.35 1.31 1.1s-.51 1.09-1.29 1.09H96.7V29zm20.21 3.67V24.9h-2.43l-2.77 5.26V24.9h-2v7.78h2.43l2.77-5.26v5.26zm-41.8 17.45v-3.93h-1v-6.13h-6.22v1.36a12.6 12.6 0 0 1-1 4.77H66v3.93h2v-2.29h5.1v2.29zM72 46.19h-3a12.62 12.62 0 0 0 .87-4.35v-.2H72v4.55zm11 1.64v-7.77h-2.42l-2.77 5.26v-5.26h-2v7.77h2.42L81 42.58v5.25zm8-2.3a1.72 1.72 0 0 0-1.66-1.85 1.82 1.82 0 0 0 1.4-1.72c0-1.45-1.21-2.1-3.25-2.1-1.78 0-3.45.68-3.51 2.49h2c.12-.81.62-1.07 1.48-1.07s1.22.41 1.22.87c0 .79-.57 1-1.48 1h-.55v1.34h.83c.93 0 1.34.44 1.34 1.09s-.43 1-1.39 1-1.58-.45-1.66-1.3h-2c0 2 1.7 2.76 3.65 2.76 2.16 0 3.63-.84 3.63-2.53zm8.1 2.3a5.36 5.36 0 0 1-.27-2.11v-3.36c0-2.16-1.82-2.53-3.39-2.53-2.24 0-3.48.89-3.6 2.62h2c.15-.88.55-1.19 1.53-1.19s1.4.34 1.4 1-.51.76-1.89.94c-1.54.19-3.39.44-3.39 2.47 0 1.46 1 2.35 2.77 2.35a3.53 3.53 0 0 0 2.51-1 2.38 2.38 0 0 0 .15.75zm-2.33-3.78v.88a1.69 1.69 0 0 1-1.9 1.73c-.74 0-1.17-.39-1.17-1 0-.95.82-1 1.56-1.16a4 4 0 0 0 1.51-.41zm8.59-6.94c-.14.69-.8 1-1.61 1s-1.48-.3-1.62-1h-.84c0 1.55 1 2.17 2.46 2.17s2.45-.62 2.45-2.17zm2 10.72v-7.77H105l-2.77 5.26v-5.26h-2v7.77h2.43l2.77-5.25v5.25zm8.51 0v-7.77h-2.12v2.82h-3v-2.82h-2.12v7.77h2.12v-3.27h3v3.27zm8.47 0a5.19 5.19 0 0 1-.27-2.11v-3.36c0-2.16-1.82-2.53-3.39-2.53-2.25 0-3.48.89-3.6 2.62h2c.15-.88.56-1.19 1.54-1.19s1.4.34 1.4 1-.51.76-1.9.94-3.39.44-3.39 2.47c0 1.46 1.06 2.35 2.77 2.35a3.53 3.53 0 0 0 2.52-1 2.13 2.13 0 0 0 .15.75zM122 44.05v.88a1.69 1.69 0 0 1-1.89 1.73c-.74 0-1.18-.39-1.18-1 0-.95.83-1 1.57-1.16a4 4 0 0 0 1.5-.41z"/></svg>