<svg id="Layer_1" data-name="Layer 1" xmlns="http://www.w3.org/2000/svg" viewBox="0 0 195 195"><defs><style>.cls-1{fill:#fe0000}</style></defs><title>inst</title><path class="cls-1" d="M135.1 89.9h12.2v52.6a5.8 5.8 0 0 1-5.8 5.8H52.9a5.8 5.8 0 0 1-5.8-5.8V89.9h12.2a37.7 37.7 0 0 0-.9 8.3 38.8 38.8 0 0 0 77.6 0 37.7 37.7 0 0 0-.9-8.3zm-37.9 34.4a26.1 26.1 0 1 0-26.1-26.1 26.12 26.12 0 0 0 26.1 26.1zm31.3-52.9h10a5.34 5.34 0 0 0 5.3-5.3v-10a5.34 5.34 0 0 0-5.3-5.3h-10a5.34 5.34 0 0 0-5.3 5.3v10a5.34 5.34 0 0 0 5.3 5.3zM194.7.7v195H-.3V.7zm-35.4 51A15.66 15.66 0 0 0 143.6 36H50.7A15.66 15.66 0 0 0 35 51.7v92.9a15.73 15.73 0 0 0 15.7 15.7h92.9a15.73 15.73 0 0 0 15.7-15.7z" transform="translate(.3 -.7)"/></svg>